<svg width="1129" height="813" viewBox="0 0 1129 813" fill="none" xmlns="http://www.w3.org/2000/svg">
<g clip-path="url(#clip0_56_17)">
<path d="M770.599 476.967C785.706 476.75 801.24 476.696 817.201 476.807C841.393 476.974 837.816 479.073 850.26 476.974C857.836 475.695 862.133 473.214 864.335 473.559C865.751 473.782 866.301 475.172 866.301 478.798C866.301 484.979 863.541 497.865 858.022 517.455L824.649 589.954L812.218 623.49C808.327 633.985 798.389 641.007 787.203 641.163L707.869 642.269L755.142 483.096C756.247 479.375 759.688 476.841 763.567 476.89L769.645 476.967C769.963 476.971 770.281 476.971 770.599 476.967Z" fill="#A339FF"/>
<path d="M827.014 652.496C826.81 654.739 824.926 656.497 822.631 656.497H814.855L834.497 729.85C834.487 730.124 832.974 730.733 830.941 731.278C830.002 731.53 829.053 731.739 828.404 731.823C827.756 731.906 827.337 731.906 827.303 731.779L807.145 656.497H347.656L327.498 731.779C327.352 732.011 325.737 731.781 323.704 731.236C322.766 730.985 321.839 730.691 321.236 730.439C320.633 730.187 320.27 729.977 320.304 729.85L339.946 656.497H334.472C332.041 656.497 330.071 654.525 330.071 652.093C330.071 649.661 332.041 647.69 334.472 647.69H819.359L876.011 483.053C876.802 480.753 879.307 479.531 881.605 480.323C883.903 481.114 885.124 483.621 884.333 485.92L827.014 652.496Z" fill="#D8DEED"/>
<path d="M971.698 295.333H719.156C711.677 295.333 705.614 301.399 705.614 308.883V366.47C705.614 373.954 711.677 380.02 719.156 380.02H971.698C979.177 380.02 985.24 373.954 985.24 366.47V308.883C985.24 301.399 979.177 295.333 971.698 295.333Z" fill="#E1E5F0"/>
<path d="M731.653 335.65H873.116C873.864 335.65 874.47 336.257 874.47 337.005V344.084C874.47 344.833 873.864 345.439 873.116 345.439H731.653C730.906 345.439 730.299 344.833 730.299 344.084V337.005C730.299 336.257 730.906 335.65 731.653 335.65ZM731.653 351.557H885.334C886.081 351.557 886.688 352.164 886.688 352.912V359.991C886.688 360.739 886.081 361.346 885.334 361.346H731.653C730.906 361.346 730.299 360.739 730.299 359.991V352.912C730.299 352.164 730.906 351.557 731.653 351.557Z" fill="#F2F6FB"/>
<path d="M887.777 319.743H731.653C730.906 319.743 730.299 320.35 730.299 321.098V328.177C730.299 328.926 730.906 329.532 731.653 329.532H887.777C888.525 329.532 889.131 328.926 889.131 328.177V321.098C889.131 320.35 888.525 319.743 887.777 319.743Z" fill="#F2F6FB"/>
<path d="M971.698 199.128H719.156C711.677 199.128 705.614 205.194 705.614 212.678V270.265C705.614 277.749 711.677 283.815 719.156 283.815H971.698C979.177 283.815 985.24 277.749 985.24 270.265V212.678C985.24 205.194 979.177 199.128 971.698 199.128Z" fill="#F2F6FB"/>
<path d="M942.89 362.57C929.394 362.57 918.454 351.613 918.454 338.098C918.454 324.582 929.394 313.626 942.89 313.626C956.385 313.626 967.325 324.582 967.325 338.098C967.325 351.613 956.385 362.57 942.89 362.57ZM754.735 265.962C741.24 265.962 730.299 255.006 730.299 241.49C730.299 227.975 741.24 217.018 754.735 217.018C768.23 217.018 779.171 227.975 779.171 241.49C779.171 255.006 768.23 265.962 754.735 265.962Z" fill="#474BFF"/>
<path fill-rule="evenodd" clip-rule="evenodd" d="M754.722 241.159C751.395 241.159 748.697 238.494 748.697 235.206C748.697 231.919 751.395 229.254 754.722 229.254C758.05 229.254 760.748 231.919 760.748 235.206C760.748 238.494 758.05 241.159 754.722 241.159ZM754.722 244.135C760.754 244.135 765.643 248.966 765.643 254.925H743.802C743.802 248.966 748.691 244.135 754.722 244.135ZM942.877 337.766C939.55 337.766 936.852 335.101 936.852 331.814C936.852 328.526 939.55 325.861 942.877 325.861C946.205 325.861 948.902 328.526 948.902 331.814C948.902 335.101 946.205 337.766 942.877 337.766ZM942.877 340.743C948.909 340.743 953.798 345.573 953.798 351.532H931.956C931.956 345.573 936.846 340.743 942.877 340.743Z" fill="white"/>
<path d="M792.743 236.596H934.205C934.953 236.596 935.559 237.202 935.559 237.951V245.03C935.559 245.778 934.953 246.385 934.205 246.385H792.743C791.995 246.385 791.388 245.778 791.388 245.03V237.951C791.388 237.202 791.995 236.596 792.743 236.596ZM792.743 252.503H958.64C959.388 252.503 959.995 253.109 959.995 253.858V260.937C959.995 261.685 959.388 262.292 958.64 262.292H792.743C791.995 262.292 791.388 261.685 791.388 260.937V253.858C791.388 253.109 791.995 252.503 792.743 252.503Z" fill="#E1E5F0"/>
<path d="M899.995 220.689H792.743C791.995 220.689 791.388 221.295 791.388 222.044V229.123C791.388 229.871 791.995 230.478 792.743 230.478H899.995C900.743 230.478 901.349 229.871 901.349 229.123V222.044C901.349 221.295 900.743 220.689 899.995 220.689Z" fill="#E1E5F0"/>
<path d="M359.18 480.784L358.836 480.999C357.551 481.883 357.199 483.62 358.024 484.942L416.133 575.951C417.016 577.237 418.753 577.589 420.073 576.763L420.418 576.548C421.703 575.664 422.055 573.927 421.229 572.605L363.156 481.653C362.295 480.274 360.558 479.922 359.18 480.784ZM508.276 646.331L399.269 646.331C397.587 646.331 396.223 647.696 396.223 649.38C396.223 651.063 397.587 652.428 399.269 652.428L508.276 652.428C509.959 652.428 511.323 651.063 511.323 649.38C511.323 647.696 509.959 646.331 508.276 646.331Z" fill="#FFCB3D"/>
<path d="M362.653 480.881C362.861 481.063 363.047 481.281 363.205 481.532L421.278 572.484C421.561 572.938 421.706 573.44 421.722 573.941L455.278 553.872L430.795 508.784L416.794 503.239C412.968 502.355 409.229 501.098 405.612 499.525C396.936 495.603 394.805 492.062 383.481 484.923C380.438 482.991 377.352 481.245 374.036 479.644C372.099 479.098 368.403 478.293 365.216 479.327C364.685 479.499 364.226 479.786 363.788 479.98C363.359 480.248 362.983 480.554 362.653 480.881ZM398.922 646.236C399.052 646.219 399.184 646.21 399.318 646.21L508.325 646.21C508.474 646.21 508.622 646.221 508.766 646.242L508.766 600.939L462.448 600.939C453.702 606.946 448.404 610.876 446.553 612.728C443.777 615.506 440.731 618.012 437.481 620.248C429.559 625.533 425.429 625.465 413.377 631.291C410.128 632.85 407.013 634.543 403.899 636.508C400.784 638.473 399.769 640.573 398.956 643.825C398.821 644.367 398.821 644.909 398.753 645.383C398.753 645.696 398.814 645.979 398.922 646.236Z" fill="#474961"/>
<path opacity="0.176986" d="M362.65 480.879C362.859 481.061 363.047 481.28 363.204 481.532L421.278 572.484C421.561 572.937 421.705 573.439 421.721 573.938L455.273 553.872L430.79 508.784L416.789 503.239C412.964 502.355 409.225 501.098 405.608 499.525C396.931 495.603 394.8 492.062 383.476 484.923C380.433 482.991 377.347 481.245 374.032 479.644C372.094 479.098 368.398 478.293 365.211 479.327C364.68 479.499 364.221 479.786 363.783 479.98C363.355 480.248 362.98 480.553 362.65 480.879Z" fill="#444444"/>
<path d="M437.365 531.688L427.674 501.936C426.046 496.937 428.238 491.488 432.875 489.013L453.583 477.959C463.846 461.928 478.028 451.43 497.817 459.467C498.428 459.715 499.059 459.98 499.71 460.263L499.136 459.932C532.334 441.335 552.837 430.967 560.645 428.83C568.452 426.693 576.379 429.792 584.425 438.128L668.565 555.79C719.778 558.85 745.452 573.938 745.586 601.054C745.719 628.17 731.203 644.713 702.04 650.681C673.278 653.087 649.643 652.256 631.135 648.19C610.165 649.319 592.211 646.55 577.271 639.883C553.262 629.168 530.813 605.605 509.924 569.193L508.881 601.541H438.174C434.435 601.541 431.403 598.508 431.403 594.766C431.403 594.616 431.408 594.466 431.418 594.315C433.092 569.205 435.075 548.329 437.365 531.688Z" fill="#DE3190"/>
<path opacity="0.176986" d="M631.283 648.182C610.25 649.332 592.246 646.566 577.272 639.883C553.262 629.169 530.813 605.605 509.924 569.193L508.881 601.542H438.174C434.435 601.542 431.404 598.508 431.404 594.767C431.404 594.616 431.409 594.466 431.419 594.316C435.123 538.748 440.337 503.918 447.061 489.826C457.577 467.787 473.444 449.568 497.817 459.467C498.68 459.817 499.582 460.202 500.526 460.621L545.963 486.789L551.055 509.37C563.022 574.766 578.293 615.748 596.869 632.316C605.095 639.653 616.566 644.941 631.283 648.182Z" fill="#444444"/>
<path d="M744.487 471.736C750.437 472.088 757.382 473.788 763.65 478.662C771.032 484.368 774.01 490.878 779.396 504.005C783.869 514.908 787.718 524.557 783.303 530.218C780.071 534.361 774.41 534.361 770.606 534.103C764.968 532.997 759.724 532.584 754.617 532.413L742.466 558.872C741.233 562.341 732.643 584.1 730.114 586.786C722.89 594.517 704.539 586.837 675.063 563.746C667.624 557.087 665.55 549.118 668.839 539.839C670.729 533.907 672.494 528.403 674.134 523.327C670.365 522.817 664.9 521.447 662.624 517.325C659.157 511.037 664.909 502.18 671.39 492.344C679.131 480.47 683.301 474.651 691.591 470.404C696.693 467.806 701.83 466.891 706.512 466.871C715.218 465.01 728.739 464.571 744.487 471.736Z" fill="#FFCB3D"/>
<path opacity="0.176986" d="M673.897 523.436C670.159 522.875 665.053 521.451 662.873 517.503C659.406 511.216 665.369 502.484 671.64 492.522C679.274 480.394 683.549 474.391 691.84 470.145C696.632 467.705 701.454 466.807 705.902 466.757C702.403 467.542 699.723 468.547 698.041 469.345C693.79 471.341 692.605 473.039 689.494 478.591C687.746 481.711 682.547 496.659 673.897 523.436Z" fill="#444444"/>
<path d="M631.739 488.596L631.737 488.676L678.901 489.317C680.864 489.338 682.502 487.717 682.522 485.753L682.62 480.195C682.641 478.231 681.022 476.592 679.058 476.572L631.99 475.98L631.99 475.934L626.94 479.256C624.736 480.665 624.675 483.779 626.829 485.197L631.739 488.596Z" fill="#474BFF"/>
<path d="M732.244 455.198C733.37 458.737 735.184 463.354 737.686 469.048C734.563 467.989 731.188 467.181 727.563 466.623C722.125 465.786 719.684 465.708 716.973 465.702L716.469 461.531C712.294 462.97 712.533 462.84 712.161 463.002C709.208 463.729 706.215 463.912 703.243 463.688C697.446 463.045 691.103 452.129 688.655 436.735C688.451 435.436 688.38 434.211 688.309 432.986L688.21 420.633C688.156 417.781 688.838 415.103 690.183 412.731C690.706 411.809 691.364 410.894 692.022 409.978C699.561 400.672 712.567 402.168 714.987 402.567C715.258 402.581 715.525 402.663 715.863 402.68C718.336 403.353 720.763 403.616 723.265 403.747C724.414 403.807 725.251 404.665 725.19 405.815L724.874 423.506C724.881 424.66 730.463 423.577 731.687 423.506C734.947 423.405 739.28 426.076 740.459 429.462C741.357 433.037 740.762 437.96 738.396 440.414C737.537 441.274 735.506 446.193 732.301 455.171C732.29 455.177 732.271 455.186 732.244 455.198ZM671.161 489.234L674.832 489.284C676.475 492.34 678.031 495.215 679.361 497.642C680.803 499.067 681.822 500.067 681.96 500.221C714.069 534.549 730.144 551.723 730.185 551.741C730.337 551.735 730.668 549.657 731.471 541.857C731.531 540.287 731.71 536.471 732.004 531.795C745.052 532.876 756.619 531.359 770.606 534.103C772.647 534.241 775.286 534.248 777.779 533.64C776.824 541.75 775.319 552.63 772.743 565.362C764.998 603.59 758.114 607.569 755.075 608.736C752.483 609.732 744.521 611.969 730.187 601.875C724.436 596.644 718.638 591.02 712.854 585.031C696.552 568.187 682.707 550.957 670.93 533.995C668.837 539.497 667.669 543.478 667.424 545.939C667.186 548.33 667.801 551.462 669.019 555.791C669.052 555.908 668.901 555.908 668.565 555.791L659.057 542.642C660.095 540.952 662.135 535.235 665.178 525.489C660.624 518.571 656.408 511.717 652.501 504.971L638.748 488.904C637.498 487.383 637.609 485.134 639.157 483.821L640.532 482.728C641.151 482.203 641.883 481.93 642.621 481.885L641.688 480.796C640.438 479.275 640.55 477.025 642.097 475.712L643.473 474.619C644.478 473.767 645.767 473.541 646.907 473.912C646.684 472.697 647.077 471.405 648.109 470.53L649.485 469.437C651.032 468.124 653.287 468.387 654.565 469.846L655.999 471.521C654.921 466.852 655.304 462.43 659.774 460.969C659.774 460.969 663.486 468.012 667.976 476.455L660.138 476.357L671.161 489.234Z" fill="#F2A98A"/>
<path d="M754.15 425.984C754.398 427.282 754.595 428.519 754.852 429.759C755.792 429.944 756.796 430.2 757.92 430.734C758.714 431.115 764.148 433.503 766.409 438.235C769.645 445.053 766.164 455.861 755.717 462.437C755.159 462.747 754.675 462.925 754.675 462.925C752.878 463.577 751.18 463.624 749.415 463.667C749.077 463.649 748.668 463.696 748.668 463.696C744.974 463.457 741.04 463.2 736.864 462.925C734.534 462.55 733.047 460.557 732.402 456.945C732.226 455.96 732.154 454.754 732.125 453.395C731.946 450.888 731.625 446.308 731.399 442.64C733.651 442.351 735.739 441.308 737.315 439.695C739.816 437.248 740.619 433.558 739.508 430.176C738.329 426.79 734.945 424.102 731.685 424.202C730.461 424.274 729.287 424.687 728.169 425.307C726.761 426.319 725.544 427.544 724.783 429.132L721.457 436.963L721.516 437.014C721.471 437.02 721.427 437.024 721.386 437.027C715.319 437.659 712.655 414.724 699.709 410.789C696.705 409.885 693.447 410.198 691.593 410.644C697.167 399.874 714.932 402.16 715.27 402.178C719.305 402.797 723.058 403.804 725.222 403.918C735.891 404.749 740.086 403.612 745.353 406.602C747.328 407.723 749.151 409.175 750.475 411.076C754.03 416.047 754.405 421.953 754.15 425.984ZM696.964 430.338C696.295 430.167 696.138 429.277 696.636 428.828C697.34 428.323 698.45 427.838 699.799 427.977C702.699 428.265 705.575 430.315 702.362 430.825C700.444 431.199 698.298 430.747 696.964 430.338ZM685.483 429.465C684.818 429.226 684.729 428.34 685.359 427.966C686.127 427.531 687.166 427.111 688.643 427.392C691.465 427.879 694.191 430.193 690.854 430.493C688.811 430.657 686.814 429.942 685.483 429.465Z" fill="#482D1F"/>
<path d="M690.994 433.101C690.964 432.729 691.241 432.401 691.613 432.37C691.986 432.34 692.313 432.617 692.344 432.99L692.676 437.01L692.677 437.095L692.369 444.268C692.39 444.35 692.452 444.407 692.54 444.42C692.773 444.409 693.01 444.415 693.272 444.435C693.476 444.451 693.631 444.468 693.989 444.512C695.029 444.641 695.484 444.642 696.071 444.454C696.427 444.34 696.808 444.536 696.922 444.893C697.036 445.249 696.84 445.63 696.483 445.744C695.655 446.01 695.049 446.008 693.823 445.857C693.486 445.816 693.344 445.8 693.167 445.786C692.944 445.769 692.751 445.765 692.569 445.775L692.494 445.776C691.704 445.734 691.102 445.139 691.017 444.385L691.013 444.28L691.323 437.079L690.994 433.101Z" fill="#482D1F"/>
<path d="M697.646 450.565C698.121 450.505 699.344 450.255 699.628 449.515C699.631 449.38 699.769 449.179 699.704 449.042C699.507 448.7 697.408 448.663 697.408 448.663C694.632 448.682 693.957 448.535 693.748 448.87C693.677 449.072 693.672 449.343 694.135 449.961C694.657 451.122 696.899 450.687 697.646 450.565Z" fill="#482D1F"/>
<path d="M716.239 461.52L721.836 459.507L716.944 465.486L716.239 461.52Z" fill="#482D1F"/>
<path d="M689.973 438.249C689.091 439.559 686.955 436.326 687.545 434.118C687.73 433.178 688.352 432.94 688.829 432.897C689.573 432.936 690.356 433.52 690.378 434.403C690.52 435.564 690.624 437.469 689.973 438.249ZM700.965 438.591C700.016 439.898 697.947 436.669 698.538 434.461C698.722 433.521 699.345 433.282 699.822 433.239C700.566 433.278 701.349 433.862 701.37 434.745C701.513 435.906 701.684 437.815 700.965 438.591Z" fill="#482D1F"/>
<path d="M595.79 448.894C594.038 450.168 593.648 452.628 594.922 454.382L652.985 534.352C654.258 536.105 656.717 536.495 658.47 535.221C660.223 533.947 660.612 531.486 659.339 529.732L601.276 449.763C600.002 448.009 597.543 447.619 595.79 448.894Z" fill="#474961"/>
<path opacity="0.2" d="M665.259 525.74C662.201 535.539 660.151 541.286 659.111 542.981L668.619 556.13C668.954 556.247 669.105 556.247 669.072 556.13C667.854 551.801 667.239 548.669 667.477 546.278C667.725 543.79 668.917 539.748 671.053 534.151L665.259 525.74Z" fill="#8C2A00"/>
<path d="M731.081 515.596C731.037 515.659 730.952 515.788 730.833 515.975C730.631 516.291 730.412 516.652 730.184 517.05C729.307 518.581 728.558 520.195 728.074 521.764C726.786 525.944 727.621 528.641 731.409 529.624C731.952 529.765 732.278 530.32 732.138 530.863C731.997 531.406 731.443 531.732 730.9 531.592C725.765 530.26 724.545 526.317 726.133 521.165C726.667 519.434 727.476 517.69 728.422 516.039C728.666 515.612 728.902 515.224 729.12 514.881C729.253 514.673 729.352 514.524 729.409 514.441C729.728 513.979 730.36 513.864 730.822 514.182C731.284 514.501 731.399 515.134 731.081 515.596Z" fill="#482D1F"/>
<path d="M433.941 0H674.297C681.775 0 687.838 6.06654 687.838 13.55V201.217C687.838 203.463 686.019 205.282 683.775 205.282H424.462C422.218 205.282 420.4 203.463 420.4 201.217V13.55C420.4 6.06654 426.462 0 433.941 0Z" fill="#F2F6FB"/>
<path d="M665.04 45.2319H438.642C437.146 45.2319 435.934 46.4452 435.934 47.9419V102.198C435.934 103.695 437.146 104.908 438.642 104.908H665.04C666.535 104.908 667.748 103.695 667.748 102.198V47.9419C667.748 46.4452 666.535 45.2319 665.04 45.2319Z" fill="#A339FF"/>
<path d="M560.034 69.9388C561.569 69.9388 562.813 68.6829 562.813 67.1336C562.813 65.5843 561.569 64.3283 560.034 64.3283C558.5 64.3283 557.255 65.5843 557.255 67.1336C557.255 68.6829 558.5 69.9388 560.034 69.9388Z" fill="#F2F6FB"/>
<path d="M560.198 86.9263C560.198 86.9263 559.593 86.9263 558.837 86.9263H535.568C534.817 86.9263 534.53 86.4083 534.922 85.778L546.273 67.535C546.667 66.9008 547.325 66.8985 547.736 67.5227L557.624 82.6508" fill="#F2F6FB"/>
<path d="M551.911 86.9427C551.911 86.9427 552.229 86.4316 552.629 85.7876L559.042 75.459C559.438 74.8211 560.101 74.8012 560.525 75.4168L567.452 85.4874C567.875 86.102 567.616 86.6189 566.869 86.6421L561.127 86.8201" fill="#F2F6FB"/>
<path d="M437.288 115.65H518.224C518.972 115.65 519.578 116.257 519.578 117.005V123.843C519.578 124.592 518.972 125.198 518.224 125.198H437.288C436.54 125.198 435.934 124.592 435.934 123.843V117.005C435.934 116.257 436.54 115.65 437.288 115.65ZM437.288 131.166H494.325C495.073 131.166 495.68 131.772 495.68 132.521V139.359C495.68 140.107 495.073 140.714 494.325 140.714H437.288C436.54 140.714 435.934 140.107 435.934 139.359V132.521C435.934 131.772 436.54 131.166 437.288 131.166ZM437.288 146.682H506.275C507.023 146.682 507.629 147.288 507.629 148.037V154.875C507.629 155.623 507.023 156.23 506.275 156.23H437.288C436.54 156.23 435.934 155.623 435.934 154.875V148.037C435.934 147.288 436.54 146.682 437.288 146.682ZM437.288 162.197H482.376C483.124 162.197 483.73 162.804 483.73 163.552V170.391C483.73 171.139 483.124 171.746 482.376 171.746H437.288C436.54 171.746 435.934 171.139 435.934 170.391V163.552C435.934 162.804 436.54 162.197 437.288 162.197ZM544.831 131.166H628.157C628.904 131.166 629.511 131.772 629.511 132.521V139.359C629.511 140.107 628.904 140.714 628.157 140.714H544.831C544.083 140.714 543.476 140.107 543.476 139.359V132.521C543.476 131.772 544.083 131.166 544.831 131.166ZM544.831 146.682H638.911C639.659 146.682 640.265 147.288 640.265 148.037V154.875C640.265 155.623 639.659 156.23 638.911 156.23H544.831C544.083 156.23 543.476 155.623 543.476 154.875V148.037C543.476 147.288 544.083 146.682 544.831 146.682ZM544.831 162.197H649.665C650.413 162.197 651.019 162.804 651.019 163.552V170.391C651.019 171.139 650.413 171.746 649.665 171.746H544.831C544.083 171.746 543.476 171.139 543.476 170.391V163.552C543.476 162.804 544.083 162.197 544.831 162.197ZM544.831 177.713H617.402C618.15 177.713 618.756 178.32 618.756 179.068V185.907C618.756 186.655 618.15 187.262 617.402 187.262H544.831C544.083 187.262 543.476 186.655 543.476 185.907V179.068C543.476 178.32 544.083 177.713 544.831 177.713ZM544.831 115.65H649.665C650.413 115.65 651.019 116.257 651.019 117.005V123.843C651.019 124.592 650.413 125.198 649.665 125.198H544.831C544.083 125.198 543.476 124.592 543.476 123.843V117.005C543.476 116.257 544.083 115.65 544.831 115.65Z" fill="#E1E5F0"/>
<path d="M375.571 41.8549H118.965C116.722 41.8549 114.903 43.6749 114.903 45.9199V236.975C114.903 239.22 116.722 241.04 118.965 241.04H375.571C377.814 241.04 379.633 239.22 379.633 236.975V45.9199C379.633 43.6749 377.814 41.8549 375.571 41.8549Z" fill="#F2F6FB"/>
<path d="M228.21 123.782H266.327V137.965C266.327 139.464 265.112 140.679 263.616 140.679H230.92C229.423 140.679 228.21 139.464 228.21 137.965V123.782Z" fill="#E1E5F0"/>
<path d="M167.118 198.54H205.235V212.723C205.235 214.222 204.021 215.438 202.524 215.438H169.829C168.332 215.438 167.118 214.222 167.118 212.723V198.54Z" fill="#E1E5F0"/>
<path d="M228.21 198.54H266.327V212.723C266.327 214.222 265.112 215.438 263.616 215.438H230.92C229.423 215.438 228.21 214.222 228.21 212.723V198.54Z" fill="#E1E5F0"/>
<path d="M289.823 198.54H327.94V212.723C327.94 214.222 326.726 215.438 325.23 215.438H292.534C291.037 215.438 289.823 214.222 289.823 212.723V198.54Z" fill="#E1E5F0"/>
<path d="M228.21 95.2522C228.21 93.7582 229.424 92.5471 230.92 92.5471H263.616C265.113 92.5471 266.327 93.7603 266.327 95.2522V127.204H228.21V95.2522ZM167.118 169.673C167.118 168.174 168.333 166.958 169.829 166.958H202.524C204.022 166.958 205.235 168.168 205.235 169.673V202.124H167.118V169.673ZM228.21 169.673C228.21 168.174 229.424 166.958 230.92 166.958H263.616C265.113 166.958 266.327 168.168 266.327 169.673V202.124H228.21V169.673ZM289.823 169.673C289.823 168.174 291.038 166.958 292.534 166.958H325.23C326.727 166.958 327.94 168.168 327.94 169.673V202.124H289.823V169.673Z" fill="#474BFF"/>
<path d="M308.099 167.306V165.189V156.881C308.099 156.14 307.495 155.529 306.75 155.529H189.353C188.608 155.529 188.004 156.136 188.004 156.886V167.306H184.349V155.334C184.349 153.462 185.869 151.944 187.741 151.944H308.362C310.235 151.944 311.754 153.456 311.754 155.332V159.375V167.306H308.099Z" fill="#E1E5F0"/>
<path d="M249.096 140.679H245.441V167.306H249.096V140.679Z" fill="#E1E5F0"/>
<path d="M114.903 53.1199C114.903 46.8984 119.94 41.8549 126.162 41.8549H368.374C374.592 41.8549 379.633 46.897 379.633 53.1199V64.3848H114.903V53.1199Z" fill="#E1E5F0"/>
<path d="M130.307 58.2403C133.046 58.2403 135.267 56.0624 135.267 53.3759C135.267 50.6893 133.046 48.5115 130.307 48.5115C127.567 48.5115 125.346 50.6893 125.346 53.3759C125.346 56.0624 127.567 58.2403 130.307 58.2403Z" fill="#FF5645"/>
<path d="M146.493 58.2403C149.233 58.2403 151.453 56.0624 151.453 53.3759C151.453 50.6893 149.233 48.5115 146.493 48.5115C143.753 48.5115 141.533 50.6893 141.533 53.3759C141.533 56.0624 143.753 58.2403 146.493 58.2403Z" fill="#FFCB3D"/>
<path d="M163.202 58.2403C165.942 58.2403 168.163 56.0624 168.163 53.3759C168.163 50.6893 165.942 48.5115 163.202 48.5115C160.463 48.5115 158.242 50.6893 158.242 53.3759C158.242 56.0624 160.463 58.2403 163.202 58.2403Z" fill="#3ABF7C"/>
</g>
<defs>
<clipPath id="clip0_56_17">
<rect width="1151" height="813" fill="white" transform="translate(-22)"/>
</clipPath>
</defs>
</svg>
