<svg width="105" height="121" viewBox="0 0 105 121" fill="none" xmlns="http://www.w3.org/2000/svg">
<path d="M1 7.04812C1 3.7081 3.71017 1 7.04839 1H71.3579L97 26.363V107.871C97 111.213 94.2973 113.921 90.9521 113.921H7.04792C3.7085 113.921 1 111.206 1 107.873V7.04812Z" stroke="white" stroke-width="2"/>
<path d="M71.7691 0.000244141L98.0002 25.9458L73.2327 30.3654C69.4007 31.0492 66.8342 28.4867 67.4974 24.6582L71.7691 0.000244141Z" fill="white"/>
<rect x="20" y="49" width="58" height="2" fill="#C4C4C4"/>
<rect x="20" y="62" width="58" height="2" fill="#C4C4C4"/>
<rect x="20" y="75" width="47" height="2" fill="#C4C4C4"/>
<circle cx="94" cy="110" r="11" fill="#85EAF6"/>
<path d="M93.3791 109.379V105.653H94.6211V109.379H98.3469V110.621H94.6211V114.347H93.3791V110.621H89.6533V109.379H93.3791Z" fill="#1B1C31"/>
</svg>
