<svg width="54" height="117" viewBox="0 0 54 117" fill="none" xmlns="http://www.w3.org/2000/svg">
<path d="M0.641575 0.5H53.3584L37.0151 65.3779L36.9802 65.5164L37.0238 65.6526L53.3148 116.5H0.68523L16.9762 65.6526L17.0198 65.5164L16.9849 65.3779L0.641575 0.5Z" stroke="white"/>
<path d="M41 32.5C41 40.5081 34.5081 47 26.5 47C18.4919 47 12 40.5081 12 32.5C12 24.4919 18.4919 18 26.5 18C34.5081 18 41 24.4919 41 32.5Z" fill="#85EAF6"/>
<path d="M36.9999 34.5001C36.9999 34.5001 30.8404 36.5133 31.483 51.1365C32.1256 65.7597 14.9414 46.3773 13.5 38.5C12.0586 30.6227 18.3858 24.0516 26.2631 22.6102C34.1404 21.1687 36.9999 34.5001 36.9999 34.5001Z" fill="#85EAF6"/>
<path d="M30 61C30 62.1046 33 63 28 63C23 63 26 62.1046 26 61C26 59.8954 26.8954 59 28 59C29.1046 59 30 59.8954 30 61Z" fill="#85EAF6"/>
<path d="M28 76.9998C28 78.1043 27.1046 78.9998 26 78.9998C24.8954 78.9998 24 78.1043 24 76.9998C24 75.8952 26 76.9998 26 74.9998C26 72.9998 28 75.8952 28 76.9998Z" fill="#85EAF6"/>
<path d="M34.3967 106.136C34.3967 110.278 31.0388 113.636 26.8967 113.636C22.7546 113.636 19.3967 110.278 19.3967 106.136C19.3967 101.994 16.3967 108.636 26.8967 98.6357C37.3967 88.6357 34.3967 101.994 34.3967 106.136Z" fill="#85EAF6"/>
<path d="M41 32.4995C41 32.4995 28.5 32.4995 26.5 46.9995C24.5 61.4995 12 40.5076 12 32.4995C12 24.4914 18.4919 17.9995 26.5 17.9995C34.5081 17.9995 41 32.4995 41 32.4995Z" fill="#85EAF6"/>
</svg>
